<svg width="218" height="86" viewBox="0 0 218 86" fill="none" xmlns="http://www.w3.org/2000/svg">
<path d="M7.48 24.242C5.55867 24.242 4.05533 23.736 2.97 22.724C1.88467 21.6973 1.342 20.2527 1.342 18.39V7.588H5.588V18.478C5.588 19.1967 5.764 19.7393 6.116 20.106C6.48267 20.458 6.93 20.634 7.458 20.634C7.97133 20.634 8.41133 20.4873 8.778 20.194C9.14467 19.886 9.328 19.49 9.328 19.006C9.328 18.5953 9.26933 18.2433 9.152 17.95C9.03467 17.6567 8.85133 17.2973 8.602 16.872C8.30867 16.3733 8.08867 15.9187 7.942 15.508C7.79533 15.0827 7.722 14.562 7.722 13.946C7.722 13.6673 7.72933 13.4547 7.744 13.308H11.924C11.924 13.88 11.99 14.3493 12.122 14.716C12.254 15.0827 12.4593 15.508 12.738 15.992C13.0313 16.52 13.2513 17.004 13.398 17.444C13.5593 17.884 13.64 18.4707 13.64 19.204C13.64 20.1133 13.3833 20.9567 12.87 21.734C12.3567 22.4967 11.6307 23.1053 10.692 23.56C9.768 24.0147 8.69733 24.242 7.48 24.242ZM23.501 7.544C23.501 8.18933 23.5743 8.76133 23.721 9.26C23.8823 9.744 24.073 10.1693 24.293 10.536C24.5277 10.888 24.843 11.3207 25.239 11.834C25.723 12.4647 26.1117 13.022 26.405 13.506C26.713 13.99 26.9697 14.606 27.175 15.354C27.3803 16.102 27.483 16.9893 27.483 18.016C27.483 19.3507 27.2043 20.4873 26.647 21.426C26.1043 22.3647 25.3637 23.0687 24.425 23.538C23.501 24.0073 22.4743 24.242 21.345 24.242C20.1717 24.242 19.1303 24.0073 18.221 23.538C17.3117 23.054 16.593 22.3427 16.065 21.404C15.537 20.4653 15.273 19.314 15.273 17.95C15.273 17.158 15.361 16.388 15.537 15.64L19.695 15.772C19.5777 16.432 19.519 17.0333 19.519 17.576C19.519 18.456 19.6657 19.16 19.959 19.688C20.267 20.2013 20.7437 20.458 21.389 20.458C21.961 20.458 22.401 20.238 22.709 19.798C23.017 19.3433 23.171 18.7127 23.171 17.906C23.171 17.158 23.039 16.5273 22.775 16.014C22.511 15.5007 22.093 14.8773 21.521 14.144C21.0077 13.4987 20.5897 12.912 20.267 12.384C19.959 11.856 19.695 11.196 19.475 10.404C19.2697 9.59733 19.189 8.644 19.233 7.544H23.501ZM35.5293 24.264C34.312 24.264 33.2266 24.0587 32.2733 23.648C31.32 23.2227 30.5793 22.6287 30.0513 21.866C29.5233 21.1033 29.2593 20.2233 29.2593 19.226C29.2886 18.8447 29.3326 18.456 29.3913 18.06L33.5933 18.214C33.5786 18.3167 33.5713 18.4707 33.5713 18.676C33.5713 19.3067 33.74 19.798 34.0773 20.15C34.4293 20.502 34.9133 20.678 35.5293 20.678C36.1306 20.678 36.6 20.5093 36.9373 20.172C37.2893 19.8347 37.4653 19.336 37.4653 18.676V15.42C37.4653 14.892 37.304 14.4593 36.9813 14.122C36.6733 13.7847 36.2553 13.616 35.7273 13.616C35.2433 13.616 34.8326 13.748 34.4953 14.012C34.1726 14.276 34.0113 14.6647 34.0113 15.178C34.0113 15.2807 34.0186 15.376 34.0333 15.464L29.8093 15.552C29.78 15.376 29.7653 15.1267 29.7653 14.804C29.7653 13.88 29.9853 13.0513 30.4253 12.318C30.88 11.5847 31.4813 11.0127 32.2293 10.602C32.9773 10.1913 33.7913 9.986 34.6713 9.986C35.2286 9.986 35.7493 10.074 36.2333 10.25C36.7173 10.4113 37.128 10.646 37.4653 10.954V7.544H41.6893V18.94C41.6893 19.9813 41.4473 20.9053 40.9633 21.712C40.4793 22.504 39.7753 23.1273 38.8513 23.582C37.9273 24.0367 36.82 24.264 35.5293 24.264ZM52.0967 7.544C52.0967 8.18933 52.17 8.76133 52.3167 9.26C52.478 9.744 52.6687 10.1693 52.8887 10.536C53.1234 10.888 53.4387 11.3207 53.8347 11.834C54.3187 12.4647 54.7074 13.022 55.0007 13.506C55.3087 13.99 55.5654 14.606 55.7707 15.354C55.976 16.102 56.0787 16.9893 56.0787 18.016C56.0787 19.3507 55.8 20.4873 55.2427 21.426C54.7 22.3647 53.9594 23.0687 53.0207 23.538C52.0967 24.0073 51.07 24.242 49.9407 24.242C48.7674 24.242 47.726 24.0073 46.8167 23.538C45.9074 23.054 45.1887 22.3427 44.6607 21.404C44.1327 20.4653 43.8687 19.314 43.8687 17.95C43.8687 17.158 43.9567 16.388 44.1327 15.64L48.2907 15.772C48.1734 16.432 48.1147 17.0333 48.1147 17.576C48.1147 18.456 48.2614 19.16 48.5547 19.688C48.8627 20.2013 49.3394 20.458 49.9847 20.458C50.5567 20.458 50.9967 20.238 51.3047 19.798C51.6127 19.3433 51.7667 18.7127 51.7667 17.906C51.7667 17.158 51.6347 16.5273 51.3707 16.014C51.1067 15.5007 50.6887 14.8773 50.1167 14.144C49.6034 13.4987 49.1854 12.912 48.8627 12.384C48.5547 11.856 48.2907 11.196 48.0707 10.404C47.8654 9.59733 47.7847 8.644 47.8287 7.544H52.0967ZM70.813 13.308C71.8103 13.308 72.705 13.5207 73.497 13.946C74.289 14.3713 74.9197 15.0387 75.389 15.948C75.873 16.8573 76.115 18.0013 76.115 19.38C76.115 20.8027 75.7703 22.3427 75.081 24H70.879C71.2017 23.12 71.4363 22.3573 71.583 21.712C71.7443 21.052 71.825 20.326 71.825 19.534C71.825 18.6393 71.7003 17.994 71.451 17.598C71.2164 17.202 70.8717 17.004 70.417 17.004C69.977 17.004 69.6617 17.1873 69.471 17.554C69.2803 17.9207 69.185 18.3753 69.185 18.918V21.602H64.917V18.918C64.917 17.642 64.521 17.004 63.729 17.004C63.2743 17.004 62.9223 17.202 62.673 17.598C62.4383 17.994 62.321 18.6467 62.321 19.556C62.321 20.3773 62.3943 21.1107 62.541 21.756C62.6877 22.4013 62.9223 23.1493 63.245 24H59.065C58.713 22.9587 58.449 21.954 58.273 20.986C58.097 20.0033 58.009 18.9107 58.009 17.708C58.009 15.6253 58.3683 13.9827 59.087 12.78C59.8203 11.5773 60.6637 10.7267 61.617 10.228C62.5703 9.72933 63.729 9.282 65.093 8.886C65.8997 8.666 66.4863 8.468 66.853 8.292C67.2343 8.116 67.4617 7.86667 67.535 7.544H71.935C71.9057 8.6 71.5757 9.44333 70.945 10.074C70.329 10.69 69.5957 11.1447 68.745 11.438C67.909 11.7313 66.8163 12.0247 65.467 12.318C64.2057 12.5967 63.245 12.8607 62.585 13.11C61.9397 13.3447 61.5143 13.6967 61.309 14.166C61.6023 13.8727 61.9837 13.66 62.453 13.528C62.9223 13.3813 63.377 13.308 63.817 13.308C64.5357 13.308 65.159 13.44 65.687 13.704C66.215 13.9533 66.6697 14.3787 67.051 14.98C67.8283 13.8653 69.0823 13.308 70.813 13.308ZM83.8047 24.242C82.6607 24.242 81.634 23.9853 80.7247 23.472C79.8154 22.9587 79.104 22.2327 78.5907 21.294C78.092 20.3407 77.8427 19.2333 77.8427 17.972V13.55C77.8427 12.274 78.0774 11.1667 78.5467 10.228C79.0307 9.27467 79.7054 8.54867 80.5707 8.05C81.436 7.53667 82.4407 7.28 83.5847 7.28C84.4354 7.28 85.2127 7.434 85.9167 7.742C86.6354 8.03533 87.2074 8.51933 87.6327 9.194C88.014 8.534 88.5567 8.05 89.2607 7.742C89.9794 7.434 90.7127 7.28 91.4607 7.28C93.1034 7.28 94.372 7.80067 95.2667 8.842C96.1614 9.86867 96.6087 11.3207 96.6087 13.198V15.992C96.6087 17.5613 96.506 18.984 96.3007 20.26C96.11 21.5213 95.8387 22.768 95.4867 24H91.3287C92.018 21.3453 92.3627 18.72 92.3627 16.124V12.802C92.3627 11.614 91.9154 11.02 91.0207 11.02C90.17 11.02 89.7447 11.614 89.7447 12.802V18.06C89.7447 19.3067 89.488 20.3993 88.9747 21.338C88.4614 22.2767 87.75 22.9953 86.8407 23.494C85.946 23.9927 84.934 24.242 83.8047 24.242ZM82.0887 18.06C82.0887 19.688 82.6607 20.502 83.8047 20.502C84.934 20.502 85.4987 19.6953 85.4987 18.082V13.44C85.4987 11.8267 84.934 11.02 83.8047 11.02C82.6607 11.02 82.0887 11.834 82.0887 13.462V18.06ZM105.036 7.302C106.151 7.302 107.163 7.50733 108.072 7.918C108.996 8.32867 109.722 8.92267 110.25 9.7C110.778 10.4627 111.042 11.372 111.042 12.428C111.042 13.9973 110.353 15.0827 108.974 15.684C109.737 15.948 110.309 16.4027 110.69 17.048C111.071 17.6787 111.262 18.4193 111.262 19.27C111.262 20.1793 111.013 21.0153 110.514 21.778C110.03 22.526 109.319 23.1273 108.38 23.582C107.441 24.022 106.327 24.242 105.036 24.242C103.716 24.242 102.572 24.0073 101.604 23.538C100.636 23.0687 99.8952 22.416 99.3819 21.58C98.8832 20.744 98.6339 19.7907 98.6339 18.72C98.6339 18.2507 98.6852 17.8033 98.7879 17.378L102.924 17.532C102.895 17.7227 102.88 17.994 102.88 18.346C102.88 19.1087 103.063 19.688 103.43 20.084C103.811 20.4653 104.332 20.656 104.992 20.656C105.608 20.656 106.092 20.4873 106.444 20.15C106.796 19.8127 106.972 19.3653 106.972 18.808C106.972 18.2213 106.789 17.7887 106.422 17.51C106.055 17.2313 105.557 17.092 104.926 17.092H104.508V13.748H105.124C105.623 13.748 106.019 13.6233 106.312 13.374C106.605 13.11 106.752 12.7653 106.752 12.34C106.752 11.9 106.591 11.548 106.268 11.284C105.945 11.0053 105.535 10.866 105.036 10.866C104.479 10.866 104.061 11.02 103.782 11.328C103.503 11.6213 103.364 12.0247 103.364 12.538C103.364 12.6993 103.379 12.9267 103.408 13.22L99.1619 13.352C99.1032 12.824 99.0739 12.4427 99.0739 12.208C99.0739 11.2547 99.3306 10.404 99.8439 9.656C100.372 8.908 101.083 8.32867 101.978 7.918C102.887 7.50733 103.907 7.302 105.036 7.302ZM119.208 24.242C117.991 24.242 116.92 24.0073 115.996 23.538C115.072 23.054 114.361 22.394 113.862 21.558C113.364 20.722 113.114 19.776 113.114 18.72C113.114 18.148 113.202 17.5467 113.378 16.916L117.492 17.092C117.419 17.6053 117.382 18.0233 117.382 18.346C117.382 19.0207 117.536 19.5487 117.844 19.93C118.152 20.3113 118.614 20.502 119.23 20.502C119.817 20.502 120.286 20.3407 120.638 20.018C120.99 19.6953 121.166 19.204 121.166 18.544V12.67C121.166 12.142 121.012 11.7387 120.704 11.46C120.396 11.1813 120.008 11.042 119.538 11.042C118.996 11.042 118.585 11.196 118.306 11.504C118.028 11.812 117.888 12.2373 117.888 12.78C117.888 13.0293 117.91 13.308 117.954 13.616L113.708 13.748C113.62 13.1907 113.576 12.67 113.576 12.186C113.576 11.2033 113.833 10.3453 114.346 9.612C114.874 8.864 115.593 8.292 116.502 7.896C117.412 7.5 118.424 7.302 119.538 7.302C120.668 7.302 121.68 7.51467 122.574 7.94C123.469 8.36533 124.166 8.98867 124.664 9.81C125.163 10.6167 125.412 11.5773 125.412 12.692V18.544C125.412 19.688 125.17 20.6927 124.686 21.558C124.202 22.4087 123.491 23.0687 122.552 23.538C121.628 24.0073 120.514 24.242 119.208 24.242ZM142.336 24C142.248 23.3693 141.948 22.9073 141.434 22.614C140.936 22.306 140.378 22.1227 139.762 22.064C139.146 21.9907 138.406 21.954 137.54 21.954H129.752V18.83H131.314C130.112 18.302 129.195 17.5173 128.564 16.476C127.934 15.42 127.618 14.2027 127.618 12.824C127.618 11.68 127.853 10.69 128.322 9.854C128.792 9.018 129.43 8.38 130.236 7.94C131.043 7.5 131.923 7.28 132.876 7.28C133.639 7.28 134.336 7.434 134.966 7.742C135.612 8.03533 136.11 8.50467 136.462 9.15C136.814 8.50467 137.291 8.03533 137.892 7.742C138.494 7.434 139.154 7.28 139.872 7.28C140.547 7.28 141.207 7.44133 141.852 7.764C142.498 8.072 142.982 8.534 143.304 9.15C143.671 8.49 144.17 8.01333 144.8 7.72C145.446 7.42667 146.15 7.28 146.912 7.28C147.895 7.28 148.775 7.50733 149.552 7.962C150.344 8.402 150.975 9.09133 151.444 10.03C151.914 10.9687 152.148 12.1567 152.148 13.594C152.148 14.3127 152.09 15.002 151.972 15.662C151.855 16.3073 151.701 16.982 151.51 17.686L147.286 17.444C147.668 16.256 147.858 14.9507 147.858 13.528C147.858 12.6627 147.741 12.0247 147.506 11.614C147.272 11.1887 146.949 10.976 146.538 10.976C146.142 10.976 145.842 11.13 145.636 11.438C145.446 11.7313 145.35 12.164 145.35 12.736V15.662H141.126V12.384C141.126 11.9733 141.016 11.636 140.796 11.372C140.576 11.108 140.268 10.976 139.872 10.976C139.447 10.976 139.139 11.108 138.948 11.372C138.758 11.6213 138.662 11.9587 138.662 12.384V15.662H134.394V12.736C134.394 12.1787 134.299 11.746 134.108 11.438C133.918 11.13 133.632 10.976 133.25 10.976C132.825 10.976 132.495 11.174 132.26 11.57C132.026 11.966 131.908 12.5527 131.908 13.33C131.908 14.738 132.246 15.8087 132.92 16.542C133.61 17.2753 134.38 17.752 135.23 17.972C136.096 18.1773 137.012 18.2947 137.98 18.324L139.344 18.368C141.544 18.4413 143.29 18.9693 144.58 19.952C145.886 20.9347 146.575 22.284 146.648 24H142.336ZM155.213 24C154.861 22.768 154.582 21.5213 154.377 20.26C154.186 18.984 154.091 17.5613 154.091 15.992V13.198C154.091 11.3353 154.567 9.88333 155.521 8.842C156.489 7.80067 157.801 7.28 159.459 7.28C160.221 7.28 160.911 7.41933 161.527 7.698C162.143 7.97667 162.663 8.47533 163.089 9.194C163.822 7.918 165.098 7.28 166.917 7.28C168.559 7.28 169.828 7.80067 170.723 8.842C171.617 9.86867 172.065 11.3207 172.065 13.198V15.992C172.065 17.5613 171.962 18.984 171.757 20.26C171.566 21.5213 171.295 22.768 170.943 24H166.785C167.474 21.3453 167.819 18.72 167.819 16.124V12.802C167.819 11.614 167.371 11.02 166.477 11.02C165.626 11.02 165.201 11.614 165.201 12.802V19.402H160.955V12.802C160.955 11.614 160.529 11.02 159.679 11.02C158.784 11.02 158.337 11.614 158.337 12.802V16.124C158.337 18.72 158.681 21.3453 159.371 24H155.213ZM180.687 24.242C178.766 24.242 177.262 23.736 176.177 22.724C175.092 21.6973 174.549 20.2527 174.549 18.39V7.588H178.795V18.478C178.795 19.1967 178.971 19.7393 179.323 20.106C179.69 20.458 180.137 20.634 180.665 20.634C181.178 20.634 181.618 20.4873 181.985 20.194C182.352 19.886 182.535 19.49 182.535 19.006C182.535 18.5953 182.476 18.2433 182.359 17.95C182.242 17.6567 182.058 17.2973 181.809 16.872C181.516 16.3733 181.296 15.9187 181.149 15.508C181.002 15.0827 180.929 14.562 180.929 13.946C180.929 13.6673 180.936 13.4547 180.951 13.308H185.131C185.131 13.88 185.197 14.3493 185.329 14.716C185.461 15.0827 185.666 15.508 185.945 15.992C186.238 16.52 186.458 17.004 186.605 17.444C186.766 17.884 186.847 18.4707 186.847 19.204C186.847 20.1133 186.59 20.9567 186.077 21.734C185.564 22.4967 184.838 23.1053 183.899 23.56C182.975 24.0147 181.904 24.242 180.687 24.242Z" fill="#085791"/>
<path d="M2.244 50C1.892 48.768 1.61333 47.5213 1.408 46.26C1.21733 44.9987 1.122 43.62 1.122 42.124V39.55C1.122 38.274 1.37867 37.1667 1.892 36.228C2.40533 35.2747 3.11667 34.5487 4.026 34.05C4.95 33.5367 6.006 33.28 7.194 33.28C8.35267 33.28 9.38667 33.5293 10.296 34.028C11.22 34.5267 11.9387 35.2453 12.452 36.184C12.98 37.1227 13.244 38.2153 13.244 39.462V42.124C13.244 43.6347 13.1413 45.028 12.936 46.304C12.7307 47.5653 12.452 48.7973 12.1 50H7.986C8.66067 47.404 8.998 44.852 8.998 42.344V39.66C8.998 38.824 8.844 38.1787 8.536 37.724C8.228 37.2547 7.78067 37.02 7.194 37.02C6.59267 37.02 6.138 37.2547 5.83 37.724C5.522 38.1787 5.368 38.8313 5.368 39.682V42.344C5.368 44.7933 5.71267 47.3453 6.402 50H2.244ZM21.8745 50.242C19.9532 50.242 18.4499 49.736 17.3645 48.724C16.2792 47.6973 15.7365 46.2527 15.7365 44.39V33.588H19.9825V44.478C19.9825 45.1967 20.1585 45.7393 20.5105 46.106C20.8772 46.458 21.3245 46.634 21.8525 46.634C22.3659 46.634 22.8059 46.4873 23.1725 46.194C23.5392 45.886 23.7225 45.49 23.7225 45.006C23.7225 44.5953 23.6639 44.2433 23.5465 43.95C23.4292 43.6567 23.2459 43.2973 22.9965 42.872C22.7032 42.3733 22.4832 41.9187 22.3365 41.508C22.1899 41.0827 22.1165 40.562 22.1165 39.946C22.1165 39.6673 22.1239 39.4547 22.1385 39.308H26.3185C26.3185 39.88 26.3845 40.3493 26.5165 40.716C26.6485 41.0827 26.8539 41.508 27.1325 41.992C27.4259 42.52 27.6459 43.004 27.7925 43.444C27.9539 43.884 28.0345 44.4707 28.0345 45.204C28.0345 46.1133 27.7779 46.9567 27.2645 47.734C26.7512 48.4967 26.0252 49.1053 25.0865 49.56C24.1625 50.0147 23.0919 50.242 21.8745 50.242ZM36.3775 39.55C36.3775 38.626 36.5022 37.8707 36.7515 37.284C35.9008 37.5773 35.2408 38.1053 34.7715 38.868C34.3168 39.6307 34.0895 40.6353 34.0895 41.882C34.0895 43.3193 34.4782 44.456 35.2555 45.292C36.0328 46.1133 37.0888 46.524 38.4235 46.524C39.7435 46.524 40.7922 46.1133 41.5695 45.292C42.3468 44.456 42.7355 43.3193 42.7355 41.882C42.7355 40.6647 42.5155 39.682 42.0755 38.934C41.6502 38.1713 41.0342 37.636 40.2275 37.328C40.3302 37.592 40.4035 37.8927 40.4475 38.23C40.4915 38.5527 40.5135 38.9707 40.5135 39.484V43.642H36.3775V39.55ZM29.8215 41.882C29.8215 40.4593 30.0855 39.198 30.6135 38.098C31.1562 36.9833 31.9188 36.0813 32.9015 35.392C33.8842 34.688 35.0282 34.2113 36.3335 33.962V32.906H40.5575V33.962C42.5228 34.358 44.0848 35.2527 45.2435 36.646C46.4169 38.0247 47.0035 39.77 47.0035 41.882C47.0035 43.554 46.6368 45.0207 45.9035 46.282C45.1702 47.5433 44.1508 48.5187 42.8455 49.208C41.5548 49.8973 40.0808 50.242 38.4235 50.242C36.7662 50.242 35.2848 49.8973 33.9795 49.208C32.6742 48.5187 31.6548 47.5433 30.9215 46.282C30.1882 45.0207 29.8215 43.554 29.8215 41.882ZM50.2186 50C49.8666 48.768 49.5879 47.5213 49.3826 46.26C49.1919 44.984 49.0966 43.5613 49.0966 41.992V39.198C49.0966 37.3353 49.5733 35.8833 50.5266 34.842C51.4946 33.8007 52.8073 33.28 54.4646 33.28C55.2273 33.28 55.9166 33.4193 56.5326 33.698C57.1486 33.9767 57.6693 34.4753 58.0946 35.194C58.8279 33.918 60.1039 33.28 61.9226 33.28C63.5653 33.28 64.8339 33.8007 65.7286 34.842C66.6233 35.8687 67.0706 37.3207 67.0706 39.198V41.992C67.0706 43.5613 66.9679 44.984 66.7626 46.26C66.5719 47.5213 66.3006 48.768 65.9486 50H61.7906C62.4799 47.3453 62.8246 44.72 62.8246 42.124V38.802C62.8246 37.614 62.3773 37.02 61.4826 37.02C60.6319 37.02 60.2066 37.614 60.2066 38.802V45.402H55.9606V38.802C55.9606 37.614 55.5353 37.02 54.6846 37.02C53.7899 37.02 53.3426 37.614 53.3426 38.802V42.124C53.3426 44.72 53.6873 47.3453 54.3766 50H50.2186ZM81.9849 39.308C82.9822 39.308 83.8769 39.5207 84.6689 39.946C85.4609 40.3713 86.0916 41.0387 86.5609 41.948C87.0449 42.8573 87.2869 44.0013 87.2869 45.38C87.2869 46.8027 86.9422 48.3427 86.2529 50H82.0509C82.3736 49.12 82.6082 48.3573 82.7549 47.712C82.9162 47.052 82.9969 46.326 82.9969 45.534C82.9969 44.6393 82.8722 43.994 82.6229 43.598C82.3882 43.202 82.0436 43.004 81.5889 43.004C81.1489 43.004 80.8336 43.1873 80.6429 43.554C80.4522 43.9207 80.3569 44.3753 80.3569 44.918V47.602H76.0889V44.918C76.0889 43.642 75.6929 43.004 74.9009 43.004C74.4462 43.004 74.0942 43.202 73.8449 43.598C73.6102 43.994 73.4929 44.6467 73.4929 45.556C73.4929 46.3773 73.5662 47.1107 73.7129 47.756C73.8596 48.4013 74.0942 49.1493 74.4169 50H70.2369C69.8849 48.9587 69.6209 47.954 69.4449 46.986C69.2689 46.0033 69.1809 44.9107 69.1809 43.708C69.1809 41.6253 69.5402 39.9827 70.2589 38.78C70.9922 37.5773 71.8356 36.7267 72.7889 36.228C73.7422 35.7293 74.9009 35.282 76.2649 34.886C77.0716 34.666 77.6582 34.468 78.0249 34.292C78.4062 34.116 78.6336 33.8667 78.7069 33.544H83.1069C83.0776 34.6 82.7476 35.4433 82.1169 36.074C81.5009 36.69 80.7676 37.1447 79.9169 37.438C79.0809 37.7313 77.9882 38.0247 76.6389 38.318C75.3776 38.5967 74.4169 38.8607 73.7569 39.11C73.1116 39.3447 72.6862 39.6967 72.4809 40.166C72.7742 39.8727 73.1556 39.66 73.6249 39.528C74.0942 39.3813 74.5489 39.308 74.9889 39.308C75.7076 39.308 76.3309 39.44 76.8589 39.704C77.3869 39.9533 77.8416 40.3787 78.2229 40.98C79.0002 39.8653 80.2542 39.308 81.9849 39.308ZM90.1366 50C89.7846 48.768 89.5059 47.5213 89.3006 46.26C89.1099 44.9987 89.0146 43.62 89.0146 42.124V39.55C89.0146 38.274 89.2712 37.1667 89.7846 36.228C90.2979 35.2747 91.0092 34.5487 91.9186 34.05C92.8426 33.5367 93.8986 33.28 95.0866 33.28C96.2452 33.28 97.2792 33.5293 98.1886 34.028C99.1126 34.5267 99.8312 35.2453 100.345 36.184C100.873 37.1227 101.137 38.2153 101.137 39.462V42.124C101.137 43.6347 101.034 45.028 100.829 46.304C100.623 47.5653 100.345 48.7973 99.9926 50H95.8786C96.5532 47.404 96.8906 44.852 96.8906 42.344V39.66C96.8906 38.824 96.7366 38.1787 96.4286 37.724C96.1206 37.2547 95.6732 37.02 95.0866 37.02C94.4852 37.02 94.0306 37.2547 93.7226 37.724C93.4146 38.1787 93.2606 38.8313 93.2606 39.682V42.344C93.2606 44.7933 93.6052 47.3453 94.2946 50H90.1366ZM109.095 50.242C107.878 50.242 106.807 50.0073 105.883 49.538C104.959 49.054 104.248 48.394 103.749 47.558C103.251 46.722 103.001 45.776 103.001 44.72C103.001 44.148 103.089 43.5467 103.265 42.916L107.379 43.092C107.306 43.6053 107.269 44.0233 107.269 44.346C107.269 45.0207 107.423 45.5487 107.731 45.93C108.039 46.3113 108.501 46.502 109.117 46.502C109.704 46.502 110.173 46.3407 110.525 46.018C110.877 45.6953 111.053 45.204 111.053 44.544V38.098C111.053 37.7607 110.958 37.504 110.767 37.328C110.577 37.1373 110.349 37.042 110.085 37.042C109.821 37.042 109.601 37.1373 109.425 37.328C109.249 37.504 109.161 37.7607 109.161 38.098V40.716H104.981V38.604C104.981 38.208 104.864 37.9 104.629 37.68C104.409 37.4453 104.079 37.328 103.639 37.328H102.671V33.434H104.409C105.744 33.434 106.705 33.9767 107.291 35.062C107.614 34.49 108.098 34.0573 108.743 33.764C109.389 33.456 110.093 33.302 110.855 33.302C111.721 33.302 112.491 33.4853 113.165 33.852C113.84 34.2187 114.361 34.7247 114.727 35.37C115.109 36.0153 115.299 36.7413 115.299 37.548V44.544C115.299 45.688 115.057 46.6927 114.573 47.558C114.089 48.4087 113.378 49.0687 112.439 49.538C111.515 50.0073 110.401 50.242 109.095 50.242ZM132.217 50C132.129 49.3693 131.829 48.9073 131.315 48.614C130.817 48.306 130.259 48.1227 129.643 48.064C129.027 47.9907 128.287 47.954 127.421 47.954H119.633V44.83H121.195C119.993 44.302 119.076 43.5173 118.445 42.476C117.815 41.42 117.499 40.2027 117.499 38.824C117.499 37.68 117.734 36.69 118.203 35.854C118.673 35.018 119.311 34.38 120.117 33.94C120.924 33.5 121.804 33.28 122.757 33.28C123.52 33.28 124.217 33.434 124.847 33.742C125.493 34.0353 125.991 34.5047 126.343 35.15C126.695 34.5047 127.172 34.0353 127.773 33.742C128.375 33.434 129.035 33.28 129.753 33.28C130.428 33.28 131.088 33.4413 131.733 33.764C132.379 34.072 132.863 34.534 133.185 35.15C133.552 34.49 134.051 34.0133 134.681 33.72C135.327 33.4267 136.031 33.28 136.793 33.28C137.776 33.28 138.656 33.5073 139.433 33.962C140.225 34.402 140.856 35.0913 141.325 36.03C141.795 36.9687 142.029 38.1567 142.029 39.594C142.029 40.3127 141.971 41.002 141.853 41.662C141.736 42.3073 141.582 42.982 141.391 43.686L137.167 43.444C137.549 42.256 137.739 40.9507 137.739 39.528C137.739 38.6627 137.622 38.0247 137.387 37.614C137.153 37.1887 136.83 36.976 136.419 36.976C136.023 36.976 135.723 37.13 135.517 37.438C135.327 37.7313 135.231 38.164 135.231 38.736V41.662H131.007V38.384C131.007 37.9733 130.897 37.636 130.677 37.372C130.457 37.108 130.149 36.976 129.753 36.976C129.328 36.976 129.02 37.108 128.829 37.372C128.639 37.6213 128.543 37.9587 128.543 38.384V41.662H124.275V38.736C124.275 38.1787 124.18 37.746 123.989 37.438C123.799 37.13 123.513 36.976 123.131 36.976C122.706 36.976 122.376 37.174 122.141 37.57C121.907 37.966 121.789 38.5527 121.789 39.33C121.789 40.738 122.127 41.8087 122.801 42.542C123.491 43.2753 124.261 43.752 125.111 43.972C125.977 44.1773 126.893 44.2947 127.861 44.324L129.225 44.368C131.425 44.4413 133.171 44.9693 134.461 45.952C135.767 46.9347 136.456 48.284 136.529 50H132.217ZM9.042 59.544C9.042 60.1893 9.11533 60.7613 9.262 61.26C9.42333 61.744 9.614 62.1693 9.834 62.536C10.0687 62.888 10.384 63.3207 10.78 63.834C11.264 64.4647 11.6527 65.022 11.946 65.506C12.254 65.99 12.5107 66.606 12.716 67.354C12.9213 68.102 13.024 68.9893 13.024 70.016C13.024 71.3507 12.7453 72.4873 12.188 73.426C11.6453 74.3647 10.9047 75.0687 9.966 75.538C9.042 76.0073 8.01533 76.242 6.886 76.242C5.71267 76.242 4.67133 76.0073 3.762 75.538C2.85267 75.054 2.134 74.3427 1.606 73.404C1.078 72.4653 0.814 71.314 0.814 69.95C0.814 69.158 0.902 68.388 1.078 67.64L5.236 67.772C5.11867 68.432 5.06 69.0333 5.06 69.576C5.06 70.456 5.20667 71.16 5.5 71.688C5.808 72.2013 6.28467 72.458 6.93 72.458C7.502 72.458 7.942 72.238 8.25 71.798C8.558 71.3433 8.712 70.7127 8.712 69.906C8.712 69.158 8.58 68.5273 8.316 68.014C8.052 67.5007 7.634 66.8773 7.062 66.144C6.54867 65.4987 6.13067 64.912 5.808 64.384C5.5 63.856 5.236 63.196 5.016 62.404C4.81067 61.5973 4.73 60.644 4.774 59.544H9.042ZM25.6786 76C25.532 75.2667 25.0993 74.7827 24.3806 74.548C23.6766 74.2987 22.8553 74.174 21.9166 74.174H16.1746V71.05H17.6046C16.666 70.434 15.918 69.6127 15.3606 68.586C14.8033 67.5447 14.5246 66.43 14.5246 65.242C14.5246 63.922 14.7593 62.8147 15.2286 61.92C15.7126 61.0253 16.358 60.3653 17.1646 59.94C17.9713 59.5147 18.8733 59.302 19.8706 59.302C20.6333 59.302 21.3666 59.456 22.0706 59.764C22.7893 60.0573 23.3393 60.49 23.7206 61.062C24.0873 60.5193 24.6226 60.094 25.3266 59.786C26.0306 59.4633 26.786 59.302 27.5926 59.302C28.6193 59.302 29.5433 59.5293 30.3646 59.984C31.2006 60.424 31.8533 61.0473 32.3226 61.854C32.8066 62.6607 33.0486 63.5847 33.0486 64.626C33.0486 65.638 32.8066 66.54 32.3226 67.332C31.8386 68.1093 31.1566 68.718 30.2766 69.158C29.4113 69.598 28.4286 69.818 27.3286 69.818C26.2286 69.818 25.2386 69.6053 24.3586 69.18C23.4786 68.7547 22.7893 68.168 22.2906 67.42C21.792 66.6573 21.5426 65.7993 21.5426 64.846V64.428C21.5426 64.0173 21.4473 63.658 21.2566 63.35C21.066 63.042 20.7653 62.888 20.3546 62.888C19.856 62.888 19.4746 63.086 19.2106 63.482C18.9613 63.878 18.8366 64.5087 18.8366 65.374C18.8366 67.178 19.3206 68.476 20.2886 69.268C21.2566 70.06 22.386 70.5293 23.6766 70.676L24.4686 70.764C26.1113 70.9547 27.424 71.49 28.4066 72.37C29.3893 73.2353 29.9173 74.4453 29.9906 76H25.6786ZM25.7226 64.56C25.7226 65.0733 25.862 65.4913 26.1406 65.814C26.434 66.122 26.8226 66.276 27.3066 66.276C27.7906 66.276 28.172 66.122 28.4506 65.814C28.7293 65.4913 28.8686 65.0733 28.8686 64.56C28.8686 64.032 28.7293 63.614 28.4506 63.306C28.172 62.998 27.7906 62.844 27.3066 62.844C26.8226 62.844 26.434 63.0053 26.1406 63.328C25.862 63.636 25.7226 64.0467 25.7226 64.56ZM40.0201 76.242C38.8321 76.242 37.7614 76.0147 36.8081 75.56C35.8694 75.1053 35.1287 74.46 34.5861 73.624C34.0581 72.788 33.7941 71.82 33.7941 70.72C33.7941 69.2093 34.2707 67.97 35.2241 67.002C36.1774 66.0193 37.4534 65.418 39.0521 65.198C39.6387 65.1247 40.0641 64.9927 40.3281 64.802C40.5921 64.5967 40.7241 64.2887 40.7241 63.878C40.7241 63.218 40.4307 62.888 39.8441 62.888C39.5654 62.888 39.3527 62.9833 39.2061 63.174C39.0594 63.3647 38.9934 63.636 39.0081 63.988L34.6081 63.878C34.6227 63.0273 34.8501 62.2573 35.2901 61.568C35.7447 60.864 36.3681 60.314 37.1601 59.918C37.9521 59.5073 38.8614 59.302 39.8881 59.302C40.9147 59.302 41.8167 59.4927 42.5941 59.874C43.3714 60.2553 43.9654 60.754 44.3761 61.37C44.8014 61.9713 45.0141 62.602 45.0141 63.262C45.0141 64.5087 44.5081 65.418 43.4961 65.99C44.3761 66.4593 45.0581 67.1047 45.5421 67.926C46.0407 68.7473 46.2901 69.6787 46.2901 70.72C46.2901 71.82 46.0187 72.788 45.4761 73.624C44.9334 74.46 44.1854 75.1053 43.2321 75.56C42.2787 76.0147 41.2081 76.242 40.0201 76.242ZM38.0621 70.72C38.0621 71.3067 38.2381 71.7687 38.5901 72.106C38.9421 72.4433 39.4187 72.612 40.0201 72.612C40.6361 72.612 41.1201 72.4433 41.4721 72.106C41.8387 71.7687 42.0221 71.3067 42.0221 70.72C42.0221 70.1333 41.8387 69.664 41.4721 69.312C41.1054 68.96 40.6214 68.784 40.0201 68.784C39.4334 68.784 38.9567 68.9673 38.5901 69.334C38.2381 69.686 38.0621 70.148 38.0621 70.72ZM49.4237 76C49.0717 74.768 48.793 73.5213 48.5877 72.26C48.397 70.9987 48.3017 69.62 48.3017 68.124V65.55C48.3017 64.274 48.5584 63.1667 49.0717 62.228C49.585 61.2747 50.2964 60.5487 51.2057 60.05C52.1297 59.5367 53.1857 59.28 54.3737 59.28C55.5324 59.28 56.5664 59.5293 57.4757 60.028C58.3997 60.5267 59.1184 61.2453 59.6317 62.184C60.1597 63.1227 60.4237 64.2153 60.4237 65.462V68.124C60.4237 69.6347 60.321 71.028 60.1157 72.304C59.9104 73.5653 59.6317 74.7973 59.2797 76H55.1657C55.8404 73.404 56.1777 70.852 56.1777 68.344V65.66C56.1777 64.824 56.0237 64.1787 55.7157 63.724C55.4077 63.2547 54.9604 63.02 54.3737 63.02C53.7724 63.02 53.3177 63.2547 53.0097 63.724C52.7017 64.1787 52.5477 64.8313 52.5477 65.682V68.344C52.5477 70.7933 52.8924 73.3453 53.5817 76H49.4237ZM77.2602 76C77.1722 75.3693 76.8716 74.9073 76.3582 74.614C75.8596 74.306 75.3022 74.1227 74.6862 74.064C74.0702 73.9907 73.3296 73.954 72.4642 73.954H64.6762V70.83H66.2382C65.0356 70.302 64.1189 69.5173 63.4882 68.476C62.8576 67.42 62.5422 66.2027 62.5422 64.824C62.5422 63.68 62.7769 62.69 63.2462 61.854C63.7156 61.018 64.3536 60.38 65.1602 59.94C65.9669 59.5 66.8469 59.28 67.8002 59.28C68.5629 59.28 69.2596 59.434 69.8902 59.742C70.5356 60.0353 71.0342 60.5047 71.3862 61.15C71.7382 60.5047 72.2149 60.0353 72.8162 59.742C73.4176 59.434 74.0776 59.28 74.7962 59.28C75.4709 59.28 76.1309 59.4413 76.7762 59.764C77.4216 60.072 77.9056 60.534 78.2282 61.15C78.5949 60.49 79.0936 60.0133 79.7242 59.72C80.3696 59.4267 81.0736 59.28 81.8362 59.28C82.8189 59.28 83.6989 59.5073 84.4762 59.962C85.2682 60.402 85.8989 61.0913 86.3682 62.03C86.8376 62.9687 87.0722 64.1567 87.0722 65.594C87.0722 66.3127 87.0136 67.002 86.8962 67.662C86.7789 68.3073 86.6249 68.982 86.4342 69.686L82.2102 69.444C82.5916 68.256 82.7822 66.9507 82.7822 65.528C82.7822 64.6627 82.6649 64.0247 82.4302 63.614C82.1956 63.1887 81.8729 62.976 81.4622 62.976C81.0662 62.976 80.7656 63.13 80.5602 63.438C80.3696 63.7313 80.2742 64.164 80.2742 64.736V67.662H76.0502V64.384C76.0502 63.9733 75.9402 63.636 75.7202 63.372C75.5002 63.108 75.1922 62.976 74.7962 62.976C74.3709 62.976 74.0629 63.108 73.8722 63.372C73.6816 63.6213 73.5862 63.9587 73.5862 64.384V67.662H69.3182V64.736C69.3182 64.1787 69.2229 63.746 69.0322 63.438C68.8416 63.13 68.5556 62.976 68.1742 62.976C67.7489 62.976 67.4189 63.174 67.1842 63.57C66.9496 63.966 66.8322 64.5527 66.8322 65.33C66.8322 66.738 67.1696 67.8087 67.8442 68.542C68.5336 69.2753 69.3036 69.752 70.1542 69.972C71.0196 70.1773 71.9362 70.2947 72.9042 70.324L74.2682 70.368C76.4682 70.4413 78.2136 70.9693 79.5042 71.952C80.8096 72.9347 81.4989 74.284 81.5722 76H77.2602ZM94.9766 76.242C93.8326 76.242 92.8059 75.9853 91.8966 75.472C90.9872 74.9587 90.2759 74.2327 89.7626 73.294C89.2639 72.3407 89.0146 71.2333 89.0146 69.972V65.55C89.0146 64.274 89.2492 63.1667 89.7186 62.228C90.2026 61.2747 90.8772 60.5487 91.7426 60.05C92.6079 59.5367 93.6126 59.28 94.7566 59.28C95.6072 59.28 96.3846 59.434 97.0886 59.742C97.8072 60.0353 98.3792 60.5193 98.8046 61.194C99.1859 60.534 99.7286 60.05 100.433 59.742C101.151 59.434 101.885 59.28 102.633 59.28C104.275 59.28 105.544 59.8007 106.439 60.842C107.333 61.8687 107.781 63.3207 107.781 65.198V67.992C107.781 69.5613 107.678 70.984 107.473 72.26C107.282 73.5213 107.011 74.768 106.659 76H102.501C103.19 73.3453 103.535 70.72 103.535 68.124V64.802C103.535 63.614 103.087 63.02 102.193 63.02C101.342 63.02 100.917 63.614 100.917 64.802V70.06C100.917 71.3067 100.66 72.3993 100.147 73.338C99.6332 74.2767 98.9219 74.9953 98.0126 75.494C97.1179 75.9927 96.1059 76.242 94.9766 76.242ZM93.2606 70.06C93.2606 71.688 93.8326 72.502 94.9766 72.502C96.1059 72.502 96.6706 71.6953 96.6706 70.082V65.44C96.6706 63.8267 96.1059 63.02 94.9766 63.02C93.8326 63.02 93.2606 63.834 93.2606 65.462V70.06ZM117.968 59.544C117.968 60.1893 118.041 60.7613 118.188 61.26C118.349 61.744 118.54 62.1693 118.76 62.536C118.994 62.888 119.31 63.3207 119.706 63.834C120.19 64.4647 120.578 65.022 120.872 65.506C121.18 65.99 121.436 66.606 121.642 67.354C121.847 68.102 121.95 68.9893 121.95 70.016C121.95 71.3507 121.671 72.4873 121.114 73.426C120.571 74.3647 119.83 75.0687 118.892 75.538C117.968 76.0073 116.941 76.242 115.812 76.242C114.638 76.242 113.597 76.0073 112.688 75.538C111.778 75.054 111.06 74.3427 110.532 73.404C110.004 72.4653 109.74 71.314 109.74 69.95C109.74 69.158 109.828 68.388 110.004 67.64L114.162 67.772C114.044 68.432 113.986 69.0333 113.986 69.576C113.986 70.456 114.132 71.16 114.426 71.688C114.734 72.2013 115.21 72.458 115.856 72.458C116.428 72.458 116.868 72.238 117.176 71.798C117.484 71.3433 117.638 70.7127 117.638 69.906C117.638 69.158 117.506 68.5273 117.242 68.014C116.978 67.5007 116.56 66.8773 115.988 66.144C115.474 65.4987 115.056 64.912 114.734 64.384C114.426 63.856 114.162 63.196 113.942 62.404C113.736 61.5973 113.656 60.644 113.7 59.544H117.968ZM135.183 76.242C133.262 76.242 131.758 75.736 130.673 74.724C129.588 73.6973 129.045 72.2527 129.045 70.39V59.588H133.291V70.478C133.291 71.1967 133.467 71.7393 133.819 72.106C134.186 72.458 134.633 72.634 135.161 72.634C135.674 72.634 136.114 72.4873 136.481 72.194C136.848 71.886 137.031 71.49 137.031 71.006C137.031 70.5953 136.972 70.2433 136.855 69.95C136.738 69.6567 136.554 69.2973 136.305 68.872C136.012 68.3733 135.792 67.9187 135.645 67.508C135.498 67.0827 135.425 66.562 135.425 65.946C135.425 65.6673 135.432 65.4547 135.447 65.308H139.627C139.627 65.88 139.693 66.3493 139.825 66.716C139.957 67.0827 140.162 67.508 140.441 67.992C140.734 68.52 140.954 69.004 141.101 69.444C141.262 69.884 141.343 70.4707 141.343 71.204C141.343 72.1133 141.086 72.9567 140.573 73.734C140.06 74.4967 139.334 75.1053 138.395 75.56C137.471 76.0147 136.4 76.242 135.183 76.242ZM151.204 59.544C151.204 60.1893 151.277 60.7613 151.424 61.26C151.585 61.744 151.776 62.1693 151.996 62.536C152.231 62.888 152.546 63.3207 152.942 63.834C153.426 64.4647 153.815 65.022 154.108 65.506C154.416 65.99 154.673 66.606 154.878 67.354C155.083 68.102 155.186 68.9893 155.186 70.016C155.186 71.3507 154.907 72.4873 154.35 73.426C153.807 74.3647 153.067 75.0687 152.128 75.538C151.204 76.0073 150.177 76.242 149.048 76.242C147.875 76.242 146.833 76.0073 145.924 75.538C145.015 75.054 144.296 74.3427 143.768 73.404C143.24 72.4653 142.976 71.314 142.976 69.95C142.976 69.158 143.064 68.388 143.24 67.64L147.398 67.772C147.281 68.432 147.222 69.0333 147.222 69.576C147.222 70.456 147.369 71.16 147.662 71.688C147.97 72.2013 148.447 72.458 149.092 72.458C149.664 72.458 150.104 72.238 150.412 71.798C150.72 71.3433 150.874 70.7127 150.874 69.906C150.874 69.158 150.742 68.5273 150.478 68.014C150.214 67.5007 149.796 66.8773 149.224 66.144C148.711 65.4987 148.293 64.912 147.97 64.384C147.662 63.856 147.398 63.196 147.178 62.404C146.973 61.5973 146.892 60.644 146.936 59.544H151.204ZM165.058 76.242C163.562 76.242 162.22 75.9487 161.032 75.362C159.844 74.7607 158.891 73.8073 158.172 72.502C157.468 71.182 157.116 69.488 157.116 67.42C157.116 65.7333 157.278 64.2227 157.6 62.888C157.923 61.5387 158.282 60.402 158.678 59.478H162.836C162.396 60.71 162.037 61.9127 161.758 63.086C161.494 64.2593 161.362 65.704 161.362 67.42C161.362 69.5027 161.722 70.896 162.44 71.6C163.174 72.304 164.046 72.656 165.058 72.656C165.865 72.656 166.518 72.48 167.016 72.128C167.515 71.7613 167.764 71.3067 167.764 70.764C167.764 70.2213 167.566 69.8033 167.17 69.51C166.789 69.202 166.261 69.048 165.586 69.048H164.134V65.616H166.026C166.525 65.616 166.899 65.506 167.148 65.286C167.398 65.0513 167.522 64.758 167.522 64.406C167.522 64.142 167.449 63.9147 167.302 63.724C167.17 63.5187 166.95 63.2693 166.642 62.976C166.144 62.5067 165.755 62.03 165.476 61.546C165.198 61.0473 165.058 60.358 165.058 59.478H169.304C169.348 59.874 169.466 60.226 169.656 60.534C169.862 60.8273 170.14 61.1573 170.492 61.524C170.918 61.9933 171.24 62.426 171.46 62.822C171.68 63.2033 171.79 63.6873 171.79 64.274C171.79 64.9633 171.607 65.6013 171.24 66.188C170.888 66.7747 170.338 67.2 169.59 67.464C170.338 67.728 170.925 68.19 171.35 68.85C171.776 69.51 171.988 70.302 171.988 71.226C171.988 72.1353 171.717 72.9713 171.174 73.734C170.632 74.4967 169.832 75.1053 168.776 75.56C167.735 76.0147 166.496 76.242 165.058 76.242ZM181.905 59.544C181.905 60.1893 181.979 60.7613 182.125 61.26C182.287 61.744 182.477 62.1693 182.697 62.536C182.932 62.888 183.247 63.3207 183.643 63.834C184.127 64.4647 184.516 65.022 184.809 65.506C185.117 65.99 185.374 66.606 185.579 67.354C185.785 68.102 185.887 68.9893 185.887 70.016C185.887 71.3507 185.609 72.4873 185.051 73.426C184.509 74.3647 183.768 75.0687 182.829 75.538C181.905 76.0073 180.879 76.242 179.749 76.242C178.576 76.242 177.535 76.0073 176.625 75.538C175.716 75.054 174.997 74.3427 174.469 73.404C173.941 72.4653 173.677 71.314 173.677 69.95C173.677 69.158 173.765 68.388 173.941 67.64L178.099 67.772C177.982 68.432 177.923 69.0333 177.923 69.576C177.923 70.456 178.07 71.16 178.363 71.688C178.671 72.2013 179.148 72.458 179.793 72.458C180.365 72.458 180.805 72.238 181.113 71.798C181.421 71.3433 181.575 70.7127 181.575 69.906C181.575 69.158 181.443 68.5273 181.179 68.014C180.915 67.5007 180.497 66.8773 179.925 66.144C179.412 65.4987 178.994 64.912 178.671 64.384C178.363 63.856 178.099 63.196 177.879 62.404C177.674 61.5973 177.593 60.644 177.637 59.544H181.905ZM194.132 59.302C195.246 59.302 196.258 59.5073 197.168 59.918C198.092 60.3287 198.818 60.9227 199.346 61.7C199.874 62.4627 200.138 63.372 200.138 64.428C200.138 65.9973 199.448 67.0827 198.07 67.684C198.832 67.948 199.404 68.4027 199.786 69.048C200.167 69.6787 200.358 70.4193 200.358 71.27C200.358 72.1793 200.108 73.0153 199.61 73.778C199.126 74.526 198.414 75.1273 197.476 75.582C196.537 76.022 195.422 76.242 194.132 76.242C192.812 76.242 191.668 76.0073 190.7 75.538C189.732 75.0687 188.991 74.416 188.478 73.58C187.979 72.744 187.73 71.7907 187.73 70.72C187.73 70.2507 187.781 69.8033 187.884 69.378L192.02 69.532C191.99 69.7227 191.976 69.994 191.976 70.346C191.976 71.1087 192.159 71.688 192.526 72.084C192.907 72.4653 193.428 72.656 194.088 72.656C194.704 72.656 195.188 72.4873 195.54 72.15C195.892 71.8127 196.068 71.3653 196.068 70.808C196.068 70.2213 195.884 69.7887 195.518 69.51C195.151 69.2313 194.652 69.092 194.022 69.092H193.604V65.748H194.22C194.718 65.748 195.114 65.6233 195.408 65.374C195.701 65.11 195.848 64.7653 195.848 64.34C195.848 63.9 195.686 63.548 195.364 63.284C195.041 63.0053 194.63 62.866 194.132 62.866C193.574 62.866 193.156 63.02 192.878 63.328C192.599 63.6213 192.46 64.0247 192.46 64.538C192.46 64.6993 192.474 64.9267 192.504 65.22L188.258 65.352C188.199 64.824 188.17 64.4427 188.17 64.208C188.17 63.2547 188.426 62.404 188.94 61.656C189.468 60.908 190.179 60.3287 191.074 59.918C191.983 59.5073 193.002 59.302 194.132 59.302ZM203.574 76C203.222 74.768 202.943 73.5213 202.738 72.26C202.547 70.9987 202.452 69.62 202.452 68.124V65.55C202.452 64.274 202.709 63.1667 203.222 62.228C203.735 61.2747 204.447 60.5487 205.356 60.05C206.28 59.5367 207.336 59.28 208.524 59.28C209.683 59.28 210.717 59.5293 211.626 60.028C212.55 60.5267 213.269 61.2453 213.782 62.184C214.31 63.1227 214.574 64.2153 214.574 65.462V68.124C214.574 69.6347 214.471 71.028 214.266 72.304C214.061 73.5653 213.782 74.7973 213.43 76H209.316C209.991 73.404 210.328 70.852 210.328 68.344V65.66C210.328 64.824 210.174 64.1787 209.866 63.724C209.558 63.2547 209.111 63.02 208.524 63.02C207.923 63.02 207.468 63.2547 207.16 63.724C206.852 64.1787 206.698 64.8313 206.698 65.682V68.344C206.698 70.7933 207.043 73.3453 207.732 76H203.574Z" fill="white"/>
</svg>
