<svg width="57" height="76" viewBox="0 0 57 76" fill="none" xmlns="http://www.w3.org/2000/svg">
<path d="M17.5437 39.6924V53.4808C17.542 54.2552 16.9123 54.8809 16.1409 54.8792C15.8883 54.8792 15.6392 54.8091 15.4224 54.6775L11.8352 52.5287C10.7771 51.8928 10.1303 50.7491 10.1286 49.5132V43.6498C10.1286 42.4138 9.4801 41.2685 8.42202 40.6326L1.7066 36.5812C0.648517 35.9452 1.39599e-05 34.7999 1.39599e-05 33.564V2.30654C-0.00339921 1.53216 0.619505 0.901369 1.39259 0.89624C1.65711 0.89624 1.91651 0.968037 2.14007 1.10821L4.59414 2.64672C5.6198 3.28948 6.24441 4.41772 6.24441 5.62973V28.9023C6.24441 30.1382 6.89292 31.2818 7.951 31.9178L15.8457 36.6735C16.9003 37.3111 17.5454 38.4564 17.5437 39.6907V39.6924Z" fill="white"/>
<path d="M25.228 14.9754L11.5036 6.7153C10.8398 6.317 9.98134 6.5341 9.58371 7.19908C9.45571 7.41447 9.38574 7.66063 9.38574 7.91192V24.5159C9.38574 25.7518 10.0342 26.8971 11.0923 27.5331L18.9733 32.2802C20.0314 32.9161 20.6799 34.0615 20.6799 35.2974V70.4285C20.6799 71.6644 21.3284 72.808 22.3865 73.4439L24.8065 74.9021C25.4669 75.3021 26.327 75.0884 26.7247 74.4269C26.8561 74.2098 26.9243 73.9602 26.926 73.7055L26.9312 17.9977C26.9312 16.7601 26.2861 15.613 25.228 14.9754Z" fill="white"/>
<path d="M39.4463 39.6924V53.4808C39.4497 54.2552 40.0777 54.8809 40.8508 54.8775C41.1034 54.8775 41.3491 54.8074 41.5659 54.6775L45.1497 52.515C46.2078 51.8791 46.8546 50.7355 46.8563 49.4995V43.6498C46.8563 42.4138 47.5048 41.2685 48.5629 40.6326L55.2936 36.5812C56.3517 35.9452 56.9985 34.7999 57.0002 33.564V2.30654C57.0054 1.53216 56.3825 0.901369 55.6094 0.89624C55.3431 0.89624 55.0837 0.968037 54.8585 1.10992L52.4061 2.64843C51.3787 3.29119 50.7558 4.41772 50.7558 5.63144V28.904C50.7558 30.1399 50.1073 31.2835 49.0493 31.9195L41.1563 36.6752C40.0965 37.3094 39.448 38.4547 39.4463 39.6924Z" fill="white"/>
<path d="M31.7608 14.9752L45.4852 6.71508C46.1456 6.31165 47.0057 6.5202 47.4085 7.18176C47.5416 7.40228 47.6133 7.65357 47.6133 7.9117V24.5157C47.6133 25.7516 46.9648 26.8969 45.9067 27.5328L38.0223 32.2766C36.9642 32.9125 36.3157 34.0578 36.3157 35.2938V70.4282C36.3157 71.6642 35.6672 72.8078 34.6091 73.4437L32.1874 74.9019C31.527 75.3019 30.6669 75.0882 30.2692 74.4267C30.1378 74.2096 30.0696 73.96 30.0679 73.7053L30.0576 17.9975C30.0559 16.7598 30.7027 15.6128 31.7608 14.9752Z" fill="white"/>
</svg>
