<svg width="18" height="19" viewBox="0 0 18 19" fill="none" xmlns="http://www.w3.org/2000/svg">
<path d="M12.1972 11.5168C12.1127 11.797 12.0845 12.0212 12.0845 12.1333C12.0845 12.5256 12.338 12.7217 12.8169 12.7217C13.1549 12.7217 13.5211 12.5816 13.8873 12.3294C14.2535 12.0772 14.5915 11.713 14.8732 11.2646C15.1549 10.8163 15.4085 10.2839 15.6056 9.69542C15.8028 9.10697 15.8873 8.4905 15.8873 7.81798C15.8873 6.83723 15.7183 5.96857 15.3521 5.21199C15.0141 4.45541 14.5352 3.81092 13.9155 3.27851C13.2958 2.7461 12.6197 2.3538 11.831 2.07359C11.0423 1.79337 10.1972 1.65326 9.32394 1.65326C8.25352 1.65326 7.26761 1.84941 6.3662 2.24171C5.46479 2.63401 4.67606 3.19444 4.02817 3.86696C3.38028 4.5675 2.87324 5.38012 2.50704 6.30482C2.14085 7.22953 1.94366 8.2383 1.94366 9.33114C1.94366 10.424 2.14085 11.4327 2.50704 12.3855C2.90141 13.3102 3.43662 14.1228 4.11268 14.7953C4.78873 15.4678 5.57746 16.0002 6.50704 16.3645C7.43662 16.7288 8.39437 16.925 9.46479 16.925C10.6761 16.925 11.8028 16.7008 12.8451 16.2805C13.8873 15.8601 14.7042 15.2156 15.3239 14.403H17.2676C16.9296 15.0475 16.4507 15.6079 15.9155 16.1123C15.3803 16.6167 14.7324 17.0651 14.0282 17.4293C13.3239 17.7936 12.5915 18.0738 11.8028 18.27C11.0141 18.4661 10.2254 18.5782 9.40845 18.5782C8.08451 18.5782 6.84507 18.326 5.71831 17.8497C4.59155 17.3733 3.57747 16.7008 2.73239 15.8601C1.88732 15.0195 1.21127 14.0387 0.732394 12.8899C0.253521 11.741 0 10.5361 0 9.24707C0 7.95809 0.253521 6.75317 0.732394 5.63231C1.21127 4.51145 1.88732 3.5307 2.73239 2.69006C3.57747 1.84942 4.56338 1.20492 5.69014 0.728556C6.8169 0.252191 8.02817 0 9.29577 0C10.4789 0 11.5775 0.19615 12.6197 0.560428C13.662 0.952729 14.5634 1.45711 15.3521 2.12963C16.1408 2.80214 16.7324 3.61477 17.1831 4.51145C17.6338 5.43616 17.8592 6.44493 17.8592 7.53777C17.8592 8.6306 17.662 9.55531 17.2676 10.424C16.8732 11.2926 16.3944 12.0212 15.7746 12.6377C15.1831 13.2541 14.5352 13.7305 13.8592 14.0668C13.1831 14.403 12.5352 14.5711 11.9437 14.5711C11.5211 14.5711 11.1549 14.431 10.8451 14.1508C10.5352 13.8706 10.3944 13.4783 10.3662 12.9739H10.2535C9.85916 13.3662 9.40845 13.7305 8.87324 14.0668C8.33803 14.403 7.77465 14.5711 7.15493 14.5711C6.61972 14.5711 6.14085 14.4591 5.71831 14.2629C5.29577 14.0668 4.92958 13.7865 4.64789 13.4223C4.3662 13.086 4.14085 12.6657 3.97183 12.1893C3.80282 11.713 3.74648 11.2086 3.74648 10.6481C3.74648 9.83552 3.88732 9.0229 4.14085 8.2383C4.39437 7.4537 4.78873 6.72514 5.26761 6.10867C5.74648 5.4922 6.33803 4.98781 7.04225 4.59551C7.74648 4.20321 8.50704 4.03509 9.35211 4.03509C9.94366 4.03509 10.4789 4.17519 10.9577 4.48343C11.4366 4.76364 11.8028 5.26803 12.0282 5.94055H12.0845L12.4789 4.51145H14.3099L12.1972 11.4047V11.5168ZM9.46479 6.08065C8.87324 6.08065 8.3662 6.22076 7.91549 6.47295C7.46479 6.72514 7.07042 7.08942 6.78873 7.50974C6.47887 7.95809 6.25352 8.46248 6.08451 8.99488C5.91549 9.55531 5.85915 10.1157 5.85915 10.7322C5.85915 11.3487 6 11.825 6.28169 12.1893C6.56338 12.5536 7.01408 12.7217 7.6338 12.7217C8.14085 12.7217 8.59155 12.5816 9.01408 12.2734C9.43662 11.9932 9.80282 11.6289 10.1127 11.1806C10.4225 10.7602 10.6479 10.2839 10.8169 9.75146C10.9859 9.21905 11.0704 8.71467 11.0704 8.2383C11.0704 7.64985 10.9296 7.14547 10.6761 6.69712C10.4225 6.24878 10.0282 6.02461 9.49296 6.02461L9.46479 6.08065Z" fill="#A9C9E0"/>
</svg>
