<svg width="212" height="90" viewBox="0 0 212 90" fill="none" xmlns="http://www.w3.org/2000/svg">
<path d="M66.283 71.4742H56.8734V88.018H34.0781V71.4742H0V54.5212L35.5423 2.55713H56.8806V54.227H66.2901V71.4742H66.283ZM34.0709 54.227V44.2863C34.0709 42.413 34.1355 39.8938 34.2719 36.7142C34.4083 33.5418 34.5159 31.8695 34.5949 31.7188H33.9489C32.6211 34.7189 31.121 37.5252 29.4487 40.1378L19.9818 54.227H34.0709Z" fill="#A9C9E0"/>
<path d="M134.03 45.3991C134.03 60.5218 131.496 71.5965 126.429 78.6303C121.362 85.6641 113.61 89.181 103.167 89.181C92.7243 89.181 85.2598 85.5062 80.0778 78.1637C74.8957 70.8213 72.3047 59.8974 72.3047 45.3991C72.3047 30.9008 74.8383 19.0581 79.9055 11.9597C84.9727 4.8685 92.7243 1.32288 103.167 1.32288C113.61 1.32288 121.025 5.01205 126.228 12.3976C131.432 19.7831 134.03 30.7788 134.03 45.3919V45.3991ZM95.2723 45.3991C95.2723 55.067 95.8752 61.706 97.0881 65.3306C98.2939 68.9552 100.325 70.7639 103.167 70.7639C106.01 70.7639 108.084 68.8906 109.275 65.1512C110.467 61.4118 111.055 54.823 111.055 45.3919C111.055 35.9608 110.452 29.2859 109.247 25.4891C108.041 21.6922 106.01 19.7902 103.167 19.7902C100.325 19.7902 98.2939 21.6205 97.0881 25.2881C95.8823 28.9486 95.2723 35.6522 95.2723 45.3991Z" fill="#A9C9E0"/>
<path d="M206.572 71.4742H197.162V88.018H174.367V71.4742H140.289V54.5212L175.831 2.55713H197.17V54.227H206.579V71.4742H206.572ZM174.367 54.227V44.2863C174.367 42.413 174.432 39.8938 174.575 36.7142C174.712 33.5418 174.819 31.8695 174.898 31.7188H174.252C172.925 34.7189 171.424 37.5252 169.752 40.1378L160.285 54.227H174.374H174.367Z" fill="#A9C9E0"/>
<path d="M70.7039 71.1446H61.2943V87.6884H38.499V71.1446H4.4209V54.1917L39.9632 2.22754H61.3015V53.8974H70.711V71.1446H70.7039ZM38.499 53.9046V43.9639C38.499 42.0906 38.5636 39.5714 38.7 36.3918C38.8364 33.2194 38.944 31.5471 39.023 31.3963H38.377C37.0492 34.3965 35.5491 37.2028 33.8768 39.8154L24.4099 53.9046H38.499Z" stroke="black" stroke-width="2" stroke-miterlimit="10"/>
<path d="M138.451 45.0763C138.451 60.199 135.917 71.2737 130.85 78.3075C125.783 85.3413 118.031 88.8582 107.588 88.8582C97.1452 88.8582 89.6807 85.1834 84.4987 77.841C79.3166 70.4986 76.7256 59.5746 76.7256 45.0763C76.7256 30.578 79.2592 18.7354 84.3264 11.637C89.3936 4.54575 97.1452 1.00012 107.588 1.00012C118.031 1.00012 125.446 4.68929 130.649 12.0748C135.853 19.4603 138.451 30.456 138.451 45.0691V45.0763ZM99.7003 45.0763C99.7003 54.7442 100.303 61.3833 101.516 65.0079C102.722 68.6324 104.753 70.4411 107.595 70.4411C110.438 70.4411 112.512 68.5678 113.703 64.8284C114.895 61.089 115.483 54.5002 115.483 45.0691C115.483 35.6381 114.88 28.9631 113.675 25.1663C112.469 21.3695 110.438 19.4675 107.595 19.4675C104.753 19.4675 102.722 21.2977 101.516 24.9582C100.31 28.6186 99.7003 35.3223 99.7003 45.0691V45.0763Z" stroke="black" stroke-width="2" stroke-miterlimit="10"/>
<path d="M210.993 71.1446H201.583V87.6884H178.788V71.1446H144.71V54.1917L180.252 2.22754H201.591V53.8974H211V71.1446H210.993ZM178.788 53.9046V43.9639C178.788 42.0906 178.853 39.5714 178.996 36.3918C179.133 33.2194 179.24 31.5471 179.319 31.3963H178.673C177.345 34.3965 175.845 37.2028 174.173 39.8154L164.706 53.9046H178.795H178.788Z" stroke="black" stroke-width="2" stroke-miterlimit="10"/>
</svg>
