<svg width="18" height="18" viewBox="0 0 18 18" fill="none" xmlns="http://www.w3.org/2000/svg">
<path d="M0.957712 1.87044C1.2394 1.61825 1.49292 1.36605 1.74644 1.11386L1.83095 1.02979C1.9718 0.889688 2.11264 0.74958 2.28166 0.609473C2.98588 -0.0630414 3.85912 -0.0630414 4.53518 0.609473L6.84504 2.90723C7.18306 3.21547 7.35208 3.60777 7.35208 4.00007C7.35208 4.39237 7.18306 4.75665 6.84504 5.0929L5.40842 6.522C5.40842 6.522 5.32391 6.63408 5.32391 6.69013C5.32391 6.69013 5.32391 6.71815 5.32391 6.80221C5.40842 6.94232 5.49292 7.11045 5.57743 7.25056C5.66194 7.39066 5.71828 7.55879 5.83095 7.6989C6.64785 8.98788 7.71828 10.1368 9.07039 11.2576C9.83095 11.8461 10.4507 12.2384 11.0986 12.4906C11.2394 12.5466 11.2676 12.5466 11.3802 12.4345C11.7183 12.0702 12.0281 11.762 12.4225 11.3697C12.507 11.2856 12.5915 11.2016 12.676 11.1175L12.7887 11.0054C13.4929 10.3049 14.338 10.3049 15.0422 11.0054L16.1971 12.1543C16.1971 12.1543 16.338 12.2944 16.3943 12.3505C16.4507 12.4065 16.5352 12.4906 16.5915 12.5466C16.8732 12.8268 17.1267 13.079 17.3521 13.3032C17.6619 13.6394 17.831 14.0037 17.831 14.396C17.831 14.7883 17.6619 15.1526 17.3521 15.4889L15.9155 16.918C15.4648 17.3663 14.9014 17.6465 14.2535 17.6745C13.3802 17.7586 12.4788 17.5905 11.3239 17.1701C9.52109 16.5257 7.85912 15.5169 6.08447 14.0598C3.94363 12.2664 2.25349 10.1087 1.04222 7.67088C0.676022 6.74617 0.16898 5.51323 0.0844727 4.1682C0.0844727 4.08413 0.0844727 4.00007 0.0844727 3.94403C0.0844727 3.07536 0.366163 2.40285 0.957712 1.87044ZM16.5915 14.396C16.5915 14.396 16.5915 14.34 16.4788 14.2559C16.2535 14.0317 16.0281 13.8076 15.7464 13.5274C15.6901 13.4713 15.6056 13.3873 15.5493 13.3312C15.4929 13.2752 15.4084 13.1911 15.3239 13.1351L14.169 11.9862L14 11.8461C14 11.8461 13.9155 11.8741 13.8028 11.9862L13.6901 12.0983C13.6901 12.0983 13.5211 12.2384 13.4648 12.3224C13.0986 12.6867 12.7887 12.995 12.4788 13.3312C12.4788 13.3312 12.4507 13.3873 12.3943 13.4153C11.9436 13.8356 11.4084 13.9477 10.7887 13.7515H10.7605C10.7605 13.7515 10.7324 13.7515 10.7042 13.7235C9.94363 13.4153 9.18306 12.9669 8.33799 12.2664C6.84504 11.0615 5.69011 9.80051 4.81687 8.39943C4.67602 8.20328 4.59152 7.97911 4.50701 7.81098C4.45067 7.67088 4.36616 7.55879 4.30982 7.44671C4.30982 7.41868 4.28166 7.39066 4.25349 7.36264C4.14081 7.13847 4.08447 6.88628 4.08447 6.66211C4.08447 6.24178 4.25349 5.8775 4.56335 5.54125L5.99997 4.11215L6.11264 3.97205C6.11264 3.97205 6.08447 3.916 6.02814 3.85996L3.69011 1.53418L3.52109 1.4221C3.52109 1.4221 3.43659 1.4221 3.35208 1.53418C3.35208 1.53418 3.32391 1.5622 3.29574 1.59022C3.18306 1.70231 3.04222 1.8144 2.92954 1.9545L2.84504 2.03857C2.59152 2.31878 2.28166 2.599 1.9718 2.87921C1.66194 3.18745 1.52109 3.49568 1.52109 3.94403C1.52109 4.00007 1.52109 4.05611 1.52109 4.08413C1.6056 5.20499 2.0563 6.29783 2.45067 7.11045C3.54926 9.38019 5.12673 11.3977 7.12673 13.051C8.7887 14.424 10.338 15.3488 11.9718 15.9652C12.9295 16.3295 13.6338 16.4416 14.3098 16.3855C14.6479 16.3855 14.9014 16.2454 15.1267 15.9932L16.5633 14.5642L16.676 14.396H16.5915Z" fill="#A9C9E0"/>
<path d="M13.9155 17.7866C13.1549 17.7866 12.3662 17.6185 11.3803 17.2542C9.57747 16.5817 7.91549 15.6009 6.11268 14.1158C3.94366 12.3224 2.25352 10.1648 1.07042 7.69889C0.619718 6.77418 0.084507 5.54124 0 4.16819C0 4.08413 0 4.00006 0 3.94402C0 3.07535 0.309859 2.40284 0.901408 1.81439C1.1831 1.5622 1.43662 1.31 1.69014 1.05781L1.80282 0.917702C1.80282 0.917702 2.05634 0.637488 2.22535 0.525402C2.95775 -0.175134 3.85915 -0.175134 4.59155 0.525402L6.90141 2.82316C7.23944 3.1314 7.43662 3.55172 7.43662 3.97204C7.43662 4.39236 7.23944 4.78466 6.90141 5.12092L5.46479 6.55001C5.46479 6.55001 5.40845 6.63408 5.40845 6.6621C5.40845 6.6621 5.40845 6.69012 5.40845 6.74616C5.49296 6.91429 5.57747 7.08242 5.66197 7.22253C5.74648 7.36263 5.80282 7.53076 5.91549 7.67087C6.73239 8.95986 7.77465 10.1087 9.15493 11.2016C9.91549 11.79 10.5352 12.1823 11.1549 12.4345C11.2676 12.4625 11.2676 12.4625 11.3521 12.4345C11.6901 12.0702 12 11.734 12.3944 11.3697C12.4507 11.3137 12.5352 11.2296 12.5915 11.1735L12.7606 11.0054C13.493 10.2769 14.3944 10.2769 15.1268 11.0054L16.3099 12.1823C16.3099 12.1823 16.4225 12.2944 16.4789 12.3505L16.6761 12.5466C16.9859 12.8548 17.2113 13.079 17.4366 13.3312C17.7746 13.6675 17.9437 14.0598 17.9437 14.4801C17.9437 14.9004 17.7746 15.2647 17.4366 15.629L16 17.0861C15.5211 17.5624 14.9577 17.8146 14.2817 17.8707C14.1408 17.8707 14 17.8707 13.8592 17.8707L13.9155 17.7866ZM0.957747 1.87043L1.01408 1.92647C0.422535 2.45888 0.169014 3.10337 0.169014 3.916C0.169014 4.00006 0.169014 4.0561 0.169014 4.14017C0.253521 5.4852 0.760563 6.71814 1.21127 7.61483C2.39437 10.0527 4.08451 12.2103 6.22535 13.9757C8 15.4328 9.66197 16.4416 11.4366 17.0861C12.5634 17.5064 13.4648 17.6745 14.3099 17.5905C14.9296 17.5344 15.493 17.2822 15.9437 16.8339L17.3803 15.4048H17.4648H17.4085C17.7183 15.0966 17.8592 14.7323 17.8592 14.368C17.8592 14.0037 17.6901 13.6394 17.3803 13.3312C17.1549 13.079 16.9296 12.8548 16.6197 12.5466L16.4225 12.3785C16.4225 12.3785 16.3099 12.2664 16.2535 12.2103H16.1972L15.0423 11.0334C14.3662 10.3609 13.5775 10.3609 12.9014 11.0334L12.7324 11.2016C12.7324 11.2016 12.5915 11.3417 12.5352 11.3977C12.1408 11.762 11.831 12.0983 11.5211 12.4345C11.4085 12.5466 11.3239 12.5466 11.1549 12.5186C10.507 12.2384 9.85915 11.8741 9.09859 11.2576C7.71831 10.1368 6.64789 8.95986 5.83099 7.67087C5.74648 7.53076 5.66197 7.36263 5.57747 7.22253C5.52113 7.08242 5.43662 6.91429 5.32394 6.77418C5.32394 6.77418 5.29577 6.63408 5.29577 6.60605C5.29577 6.52199 5.35211 6.43793 5.40845 6.38188L6.84507 4.95279C7.15493 4.64455 7.32394 4.28027 7.32394 3.916C7.32394 3.55172 7.15493 3.18744 6.84507 2.8792L4.50704 0.609466C3.85915 -0.0350268 3.04225 -0.0350268 2.3662 0.609466C2.22535 0.749574 2.08451 0.861659 1.97183 1.00177L1.85916 1.14187C1.60563 1.39407 1.35211 1.67428 1.07042 1.92647L1.01408 1.87043H0.957747ZM13.9155 16.4696C13.3239 16.4696 12.6761 16.3295 11.8592 16.0213C10.1972 15.4048 8.64789 14.4801 6.98592 13.107C4.98592 11.4257 3.40845 9.43622 2.28169 7.13846C1.88732 6.32584 1.43662 5.233 1.35211 4.08413C1.35211 4.02808 1.35211 3.97204 1.35211 3.916C1.35211 3.43963 1.49296 3.10337 1.83099 2.79514C2.16901 2.51492 2.4507 2.23471 2.70423 1.9545L2.87324 1.78637C2.87324 1.78637 3.07042 1.59022 3.1831 1.50615C3.1831 1.50615 3.21127 1.50615 3.23944 1.45011C3.32394 1.36605 3.43662 1.31 3.46479 1.31C3.49296 1.31 3.57746 1.31 3.69014 1.45011L6.02817 3.77589C6.02817 3.77589 6.14085 3.88797 6.14085 3.916V4.00006C6.14085 4.02808 6.08451 4.08413 6.02817 4.14017L4.59155 5.56926C4.28169 5.8775 4.14085 6.24178 4.14085 6.63408C4.14085 6.85825 4.19718 7.08242 4.30986 7.30659C4.30986 7.30659 4.30986 7.33461 4.30986 7.36263V7.41868C4.30986 7.41868 4.47887 7.67087 4.53521 7.78295C4.61972 7.95108 4.73239 8.14723 4.84507 8.34338C5.71831 9.74446 6.87324 10.9774 8.3662 12.1823C9.21127 12.8829 9.94366 13.3032 10.7324 13.6394H10.8169C11.4085 13.8636 11.9155 13.7515 12.338 13.3312C12.3662 13.3312 12.3944 13.2752 12.3944 13.2752C12.7042 12.9109 13.0141 12.6026 13.4085 12.2384C13.4085 12.2384 13.5493 12.0702 13.6338 11.9862L13.7465 11.8741C13.7465 11.8741 13.9437 11.734 13.9718 11.706H14.0282C14.0563 11.706 14.1127 11.762 14.1972 11.8461L15.5493 13.1911C15.5493 13.1911 15.6338 13.2752 15.662 13.3032L15.7465 13.3872C15.9718 13.6114 16.2254 13.8636 16.4789 14.1158C16.4789 14.1158 16.6197 14.2839 16.6197 14.34C16.6197 14.34 16.5634 14.4801 16.4789 14.5641L15.0423 15.9932C14.7887 16.2454 14.507 16.3575 14.169 16.3855C14.0563 16.3855 13.9718 16.3855 13.8592 16.3855L13.9155 16.4696ZM3.43662 1.45011C3.43662 1.45011 3.38028 1.47813 3.32394 1.53417C3.32394 1.53417 3.29577 1.5622 3.26761 1.59022C3.1831 1.67428 3.07042 1.78637 2.98592 1.87043L2.8169 2.03856C2.56338 2.31877 2.25352 2.59899 1.94366 2.8792C1.66197 3.15942 1.52113 3.46765 1.52113 3.88797C1.52113 3.94402 1.52113 3.97204 1.52113 4.02808C1.60563 5.14894 2.05634 6.21375 2.42254 7.02638C3.52113 9.29611 5.09859 11.2856 7.09859 12.9389C8.76056 14.312 10.2817 15.2367 11.9155 15.8251C12.8451 16.1614 13.5493 16.3015 14.2254 16.2454C14.5352 16.2454 14.7887 16.1053 15.0141 15.8812L16.4507 14.4521C16.4507 14.4521 16.5352 14.368 16.5352 14.34C16.5352 14.34 16.507 14.2839 16.4507 14.2559C16.1972 14.0037 15.9718 13.7515 15.7183 13.5274L15.6338 13.4433C15.6338 13.4433 15.5493 13.3592 15.5211 13.3312L15.3239 13.135L14.169 11.9862C14.169 11.9862 14.0845 11.9021 14.0563 11.8741C14.0563 11.8741 14 11.9301 13.9437 11.9862L13.831 12.0983C13.831 12.0983 13.662 12.2384 13.6056 12.3224C13.2394 12.6867 12.9296 12.9949 12.6197 13.3312C12.6197 13.3592 12.5634 13.3872 12.5352 13.4153C12.0563 13.8636 11.493 13.9757 10.8451 13.7795H10.8169C10.8169 13.7795 10.8169 13.7795 10.7887 13.7795C9.97183 13.4433 9.23944 12.9949 8.3662 12.3224C6.87324 11.1175 5.71831 9.85654 4.8169 8.42745C4.67606 8.20328 4.59155 8.00713 4.50704 7.839C4.4507 7.72691 4.3662 7.5868 4.30986 7.50274C4.30986 7.50274 4.30986 7.41868 4.28169 7.41868C4.16901 7.16648 4.11268 6.94231 4.11268 6.6621C4.11268 6.21375 4.28169 5.82145 4.61972 5.4852L6.05634 4.0561C6.05634 4.0561 6.11268 3.97204 6.14085 3.94402C6.14085 3.94402 6.14085 3.916 6.08451 3.88797L3.74648 1.5622L3.6338 1.47813L3.43662 1.45011Z" fill="#A9C9E0"/>
</svg>
