<svg width="12" height="23" viewBox="0 0 12 23" fill="none" xmlns="http://www.w3.org/2000/svg">
<path d="M11.7066 12.2075L1.70659 22.2075C1.61368 22.3004 1.50338 22.3741 1.38199 22.4244C1.26059 22.4747 1.13049 22.5006 0.999091 22.5006C0.867696 22.5006 0.737588 22.4747 0.616195 22.4244C0.494802 22.3741 0.384501 22.3004 0.291591 22.2075C0.19868 22.1146 0.12498 22.0043 0.0746975 21.8829C0.0244148 21.7615 -0.00146484 21.6314 -0.00146484 21.5C-0.00146484 21.3686 0.0244148 21.2385 0.0746975 21.1171C0.12498 20.9957 0.19868 20.8854 0.291591 20.7925L9.58534 11.5L0.291591 2.20751C0.10395 2.01987 -0.00146485 1.76537 -0.00146484 1.50001C-0.00146484 1.23464 0.10395 0.980147 0.291591 0.792507C0.479231 0.604866 0.733727 0.499451 0.999091 0.499451C1.26446 0.499451 1.51895 0.604866 1.70659 0.792507L11.7066 10.7925C11.7996 10.8854 11.8733 10.9957 11.9237 11.1171C11.974 11.2385 11.9999 11.3686 11.9999 11.5C11.9999 11.6314 11.974 11.7615 11.9237 11.8829C11.8733 12.0043 11.7996 12.1146 11.7066 12.2075Z" fill="#A9C9E0"/>
</svg>
