<svg width="88" height="115" viewBox="0 0 88 115" fill="none" xmlns="http://www.w3.org/2000/svg">
<path d="M27.5581 60.034V81.1245C27.5555 82.309 26.5923 83.266 25.4124 83.2634C25.026 83.2634 24.6449 83.1562 24.3134 82.9548L18.8265 79.6681C17.208 78.6954 16.2187 76.9461 16.2161 75.0557V66.0871C16.2161 64.1967 15.2242 62.4448 13.6057 61.4721L3.33401 55.2752C1.71559 54.3025 0.723654 52.5506 0.723654 50.6601V2.84955C0.718433 1.66507 1.67121 0.700227 2.8537 0.692383C3.25831 0.692383 3.65508 0.802202 3.99704 1.01661L7.75072 3.36988C9.31955 4.35302 10.2749 6.07875 10.2749 7.93261V43.5297C10.2749 45.4202 11.2669 47.1694 12.8853 48.1421L24.9608 55.4163C26.574 56.3916 27.5607 58.1435 27.5581 60.0314V60.034Z" fill="white"/>
<path d="M39.3125 22.2275L18.32 9.59305C17.3046 8.98381 15.9916 9.31589 15.3834 10.333C15.1876 10.6625 15.0806 11.039 15.0806 11.4234V36.8204C15.0806 38.7108 16.0725 40.4627 17.6909 41.4354L29.7455 48.6965C31.3639 49.6692 32.3559 51.4211 32.3559 53.3116V107.047C32.3559 108.938 33.3478 110.687 34.9662 111.66L38.6677 113.89C39.6779 114.502 40.9935 114.175 41.6018 113.163C41.8027 112.831 41.9072 112.449 41.9098 112.06L41.9176 26.8504C41.9176 24.9573 40.9309 23.2028 39.3125 22.2275Z" fill="white"/>
<path d="M61.0596 60.034V81.1245C61.0648 82.309 62.0254 83.266 63.2079 83.2608C63.5942 83.2608 63.9701 83.1535 64.3016 82.9548L69.7834 79.6472C71.4018 78.6745 72.3911 76.9252 72.3937 75.0348V66.0871C72.3937 64.1967 73.3857 62.4448 75.0041 61.4721L85.2993 55.2752C86.9177 54.3025 87.907 52.5506 87.9097 50.6601V2.84955C87.9175 1.66507 86.9647 0.700227 85.7822 0.692383C85.375 0.692383 84.9782 0.802202 84.6337 1.01923L80.8826 3.3725C79.3112 4.35564 78.3584 6.07875 78.3584 7.93522V43.5323C78.3584 45.4228 77.3664 47.1721 75.748 48.1447L63.6751 55.419C62.0541 56.389 61.0622 58.1409 61.0596 60.034Z" fill="white"/>
<path d="M49.3048 22.2273L70.2973 9.59288C71.3075 8.9758 72.6231 9.2948 73.2392 10.3067C73.4428 10.644 73.5524 11.0284 73.5524 11.4232V36.8202C73.5524 38.7107 72.5605 40.4625 70.9421 41.4352L58.8822 48.6911C57.2638 49.6638 56.2719 51.4157 56.2719 53.3062V107.047C56.2719 108.937 55.2799 110.687 53.6615 111.659L49.9574 113.89C48.9472 114.502 47.6316 114.175 47.0234 113.163C46.8224 112.831 46.718 112.449 46.7154 112.059L46.6997 26.8502C46.6971 24.9571 47.6864 23.2026 49.3048 22.2273Z" fill="white"/>
</svg>
