<svg width="18" height="18" viewBox="0 0 18 18" fill="none" xmlns="http://www.w3.org/2000/svg">
<path d="M8.92958 0C4 0 0 3.97905 0 8.8828C0 13.7866 4 17.7656 8.92958 17.7656C13.8592 17.7656 17.8592 13.7866 17.8592 8.8828C17.8592 3.97905 13.8592 0 8.92958 0ZM16.4789 8.21028H14.338C14.2254 5.85648 13.6056 3.75488 12.5915 2.29776C14.7324 3.47466 16.2535 5.66033 16.4789 8.21028ZM8.25352 1.45712V8.21028H4.90141C5.07042 4.84771 6.47887 2.04557 8.25352 1.45712ZM8.25352 9.55531V16.3085C6.47887 15.72 5.07042 12.9179 4.90141 9.55531H8.25352ZM9.60563 16.3085V9.55531H12.9577C12.7887 12.9179 11.3803 15.72 9.60563 16.3085ZM9.60563 8.21028V1.45712C11.3803 2.04557 12.7887 4.84771 12.9577 8.21028H9.60563ZM5.26761 2.29776C4.28169 3.7829 3.6338 5.85648 3.5493 8.21028H1.40845C1.6338 5.66033 3.15493 3.47466 5.29577 2.29776H5.26761ZM1.38028 9.55531H3.52113C3.6338 11.9091 4.25352 14.0107 5.23944 15.4678C3.09859 14.2909 1.57746 12.1053 1.35211 9.55531H1.38028ZM12.5634 15.4678C13.5493 13.9827 14.1972 11.9091 14.3099 9.55531H16.4507C16.2254 12.1053 14.7042 14.2909 12.5634 15.4678Z" fill="#A9C9E0"/>
</svg>
