<svg width="20" height="19" viewBox="0 0 20 19" fill="none" xmlns="http://www.w3.org/2000/svg">
<path d="M19.25 9.59901H7.695M7.695 9.59901C7.695 10.1772 7.46432 10.7317 7.05549 11.1405C6.64666 11.5493 6.09217 11.779 5.514 11.779C4.93583 11.779 4.38134 11.5493 3.97251 11.1405C3.56368 10.7317 3.334 10.1772 3.334 9.59901M7.695 9.59901C7.695 9.02084 7.46432 8.46635 7.05549 8.05752C6.64666 7.64869 6.09217 7.41901 5.514 7.41901C4.93583 7.41901 4.38134 7.64869 3.97251 8.05752C3.56368 8.46635 3.334 9.02084 3.334 9.59901M3.334 9.59901H0.75M19.25 16.206H17.502M17.502 16.206C17.502 16.7843 17.2718 17.3394 16.8628 17.7484C16.4539 18.1573 15.8993 18.387 15.321 18.387C14.7428 18.387 14.1883 18.1563 13.7795 17.7475C13.3707 17.3387 13.141 16.7842 13.141 16.206M17.502 16.206C17.502 15.6277 17.2718 15.0736 16.8628 14.6647C16.4539 14.2557 15.8993 14.026 15.321 14.026C14.7428 14.026 14.1883 14.2557 13.7795 14.6645C13.3707 15.0734 13.141 15.6278 13.141 16.206M13.141 16.206H0.75M19.25 2.99201H14.945M14.945 2.99201C14.945 3.27829 14.8876 3.56177 14.7781 3.82626C14.6685 4.09075 14.5079 4.33107 14.3055 4.5335C14.1031 4.73594 13.8627 4.89651 13.5983 5.00607C13.3338 5.11562 13.0503 5.17201 12.764 5.17201C12.1858 5.17201 11.6313 4.94233 11.2225 4.5335C10.8137 4.12468 10.584 3.57018 10.584 2.99201M14.945 2.99201C14.945 2.70573 14.8876 2.42225 14.7781 2.15776C14.6685 1.89327 14.5079 1.65295 14.3055 1.45052C14.1031 1.24809 13.8627 1.08751 13.5983 0.977954C13.3338 0.868399 13.0503 0.812012 12.764 0.812012C12.1858 0.812012 11.6313 1.04169 11.2225 1.45052C10.8137 1.85935 10.584 2.41384 10.584 2.99201M10.584 2.99201H0.75" stroke="#085791" stroke-width="0.75" stroke-miterlimit="10" stroke-linecap="round"/>
</svg>
