<svg width="48" height="32" viewBox="0 0 48 32" fill="none" xmlns="http://www.w3.org/2000/svg">
<rect width="48" height="32" rx="4" fill="white"/>
<path d="M10.576 20.5H9.288V10.154L10.576 10V20.5ZM12.102 16.384L15.126 20.5H13.586L10.66 16.468L13.376 13.122H14.818L12.102 16.384ZM21.3547 18.778C21.3547 19.0767 21.406 19.3007 21.5087 19.45C21.6114 19.59 21.7654 19.6973 21.9707 19.772L21.6767 20.668C21.294 20.6213 20.986 20.514 20.7527 20.346C20.5194 20.178 20.3467 19.9167 20.2347 19.562C19.74 20.2993 19.0074 20.668 18.0367 20.668C17.3087 20.668 16.7347 20.4627 16.3147 20.052C15.8947 19.6413 15.6847 19.1047 15.6847 18.442C15.6847 17.658 15.9647 17.056 16.5247 16.636C17.094 16.216 17.8967 16.006 18.9327 16.006H20.0667V15.46C20.0667 14.9373 19.9407 14.564 19.6887 14.34C19.4367 14.116 19.0494 14.004 18.5267 14.004C17.9854 14.004 17.3227 14.1347 16.5387 14.396L16.2167 13.458C17.1314 13.122 17.9807 12.954 18.7647 12.954C19.6327 12.954 20.2814 13.1687 20.7107 13.598C21.14 14.018 21.3547 14.62 21.3547 15.404V18.778ZM18.3307 19.702C19.068 19.702 19.6467 19.3193 20.0667 18.554V16.86H19.1007C17.738 16.86 17.0567 17.364 17.0567 18.372C17.0567 18.8107 17.164 19.142 17.3787 19.366C17.5934 19.59 17.9107 19.702 18.3307 19.702Z" fill="#085791"/>
<path d="M32 14L35.6464 17.6464C35.8417 17.8417 36.1583 17.8417 36.3536 17.6464L40 14" stroke="#085791" stroke-width="1.5" stroke-linecap="round"/>
</svg>
