<svg width="24" height="24" viewBox="0 0 24 24" fill="none" xmlns="http://www.w3.org/2000/svg">
<path d="M21.25 11.9999H19.695M19.695 11.9999C19.695 12.5781 19.4643 13.1326 19.0555 13.5414C18.6467 13.9502 18.0922 14.1799 17.514 14.1799C16.9358 14.1799 16.3813 13.9502 15.9725 13.5414C15.5637 13.1326 15.334 12.5781 15.334 11.9999M19.695 11.9999C19.695 11.4217 19.4643 10.8672 19.0555 10.4584C18.6467 10.0496 18.0922 9.81989 17.514 9.81989C16.9358 9.81989 16.3813 10.0496 15.9725 10.4584C15.5637 10.8672 15.334 11.4217 15.334 11.9999M15.334 11.9999H2.75M21.25 18.6069H9.502M9.502 18.6069C9.502 19.1852 9.27177 19.7403 8.86285 20.1492C8.45392 20.5582 7.89931 20.7879 7.321 20.7879C6.74283 20.7879 6.18834 20.5572 5.77951 20.1484C5.37068 19.7396 5.141 19.1851 5.141 18.6069M9.502 18.6069C9.502 18.0286 9.27177 17.4745 8.86285 17.0655C8.45392 16.6566 7.89931 16.4269 7.321 16.4269C6.74283 16.4269 6.18834 16.6566 5.77951 17.0654C5.37068 17.4742 5.141 18.0287 5.141 18.6069M5.141 18.6069H2.75M21.25 5.39289H10.945M10.945 5.39289C10.945 5.67917 10.8876 5.96265 10.7781 6.22714C10.6685 6.49163 10.5079 6.73195 10.3055 6.93438C10.1031 7.13682 9.86274 7.29739 9.59825 7.40695C9.33376 7.5165 9.05028 7.57289 8.764 7.57289C8.18583 7.57289 7.63134 7.34321 7.22251 6.93438C6.81368 6.52555 6.584 5.97106 6.584 5.39289M10.945 5.39289C10.945 5.10661 10.8876 4.82313 10.7781 4.55864C10.6685 4.29415 10.5079 4.05383 10.3055 3.8514C10.1031 3.64897 9.86274 3.48839 9.59825 3.37883C9.33376 3.26928 9.05028 3.21289 8.764 3.21289C8.18583 3.21289 7.63134 3.44257 7.22251 3.8514C6.81368 4.26023 6.584 4.81472 6.584 5.39289M6.584 5.39289H2.75" stroke="white" stroke-width="0.75" stroke-miterlimit="10" stroke-linecap="round"/>
</svg>
